<svg xmlns="http://www.w3.org/2000/svg" xmlns:xlink="http://www.w3.org/1999/xlink" width="632" height="800" viewBox="0 0 632 800">
  <defs>
    <clipPath id="clip-path">
      <rect width="544" height="43" fill="none"/>
    </clipPath>
  </defs>
  <g id="Consulta" transform="translate(-108 -261)">
    <rect id="Rectangle_3" data-name="Rectangle 3" width="632" height="800" rx="29" transform="translate(108 261)" fill="#fff"/>
    <text id="Consulta_tu_estado_del_Ingreso_Solidario" data-name="Consulta tu estado del Ingreso
Solidario" transform="translate(203 292)" font-size="40" font-family="MyriadPro-Regular, Myriad Pro"><tspan x="-186" y="30">Consulta tu estado del </tspan><tspan x="-62" y="86">Ingreso</tspan><tspan x="-73" y="142">Solidario</tspan></text>
    <text id="Por_favor_ingresa_tus_datos_personales_para_revisar_el_estado_de_entrega_de_tu_ingreso." data-name="Por favor ingresa tus datos personales para revisar el estado de entrega
de tu ingreso." transform="translate(424 468)" font-size="15" font-family="MyriadPro-Regular, Myriad Pro"><tspan x="-220" y="0">Por favor ingresa tus datos personales para revisar el estado de entrega</tspan><tspan x="-42" y="21">de tu ingreso.</tspan></text>
    <text id="Tipo_de_Documento" data-name="Tipo de Documento" transform="translate(216 509)" font-size="15" font-family="MyriadPro-Regular, Myriad Pro"><tspan x="-62" y="0">Tipo de Documento</tspan></text>
    <text id="Número_de_Documento" data-name="Número de Documento" transform="translate(229 583)" font-size="15" font-family="MyriadPro-Regular, Myriad Pro"><tspan x="-74" y="0">Número de Documento</tspan></text>
    <g id="Rectangle_6" data-name="Rectangle 6" transform="translate(152 665)" fill="#fff" stroke="#707070" stroke-width="1">
      <rect width="544" height="43" stroke="none"/>
      <rect x="0.5" y="0.5" width="543" height="42" fill="none"/>
    </g>
    <text id="Primer_Nombre" data-name="Primer Nombre" transform="translate(200 656)" font-size="15" font-family="MyriadPro-Regular, Myriad Pro"><tspan x="-47" y="0">Primer Nombre</tspan></text>
    <g id="Rectangle_7" data-name="Rectangle 7" transform="translate(152 748)" fill="#fff" stroke="#707070" stroke-width="1">
      <rect width="544" height="43" stroke="none"/>
      <rect x="0.5" y="0.5" width="543" height="42" fill="none"/>
    </g>
    <text id="Primer_Apellido" data-name="Primer Apellido" transform="translate(200 740)" font-size="15" font-family="MyriadPro-Regular, Myriad Pro"><tspan x="-48" y="0">Primer Apellido</tspan></text>
    <text id="Fecha_de_expedición_del_documento" data-name="Fecha de expedición del documento" transform="translate(266 815)" font-size="15" font-family="MyriadPro-Regular, Myriad Pro"><tspan x="-113" y="0">Fecha de expedición del documento</tspan></text>
    <g id="Repeat_Grid_2" data-name="Repeat Grid 2" transform="translate(152 592)" clip-path="url(#clip-path)">
      <g transform="translate(-152 -592)">
        <g id="Rectangle_5" data-name="Rectangle 5" transform="translate(152 592)" fill="#fff" stroke="#707070" stroke-width="1">
          <rect width="544" height="43" stroke="none"/>
          <rect x="0.5" y="0.5" width="543" height="42" fill="none"/>
        </g>
      </g>
    </g>
    <g id="Rectangle_9" data-name="Rectangle 9" transform="translate(152 899)" fill="#fff" stroke="#707070" stroke-width="1">
      <rect width="544" height="43" stroke="none"/>
      <rect x="0.5" y="0.5" width="543" height="42" fill="none"/>
    </g>
    <text id="Teléfono_Móvil" data-name="Teléfono Móvil" transform="translate(198 890)" font-size="15" font-family="MyriadPro-Regular, Myriad Pro"><tspan x="-45" y="0">Teléfono Móvil</tspan></text>
    <g id="Calendario" transform="translate(0 -11)">
      <g id="Rectangle_8" data-name="Rectangle 8" transform="translate(152 835)" fill="#fff" stroke="#707070" stroke-width="1">
        <rect width="544" height="43" stroke="none"/>
        <rect x="0.5" y="0.5" width="543" height="42" fill="none"/>
      </g>
      <path id="Icon_awesome-calendar-alt" data-name="Icon awesome-calendar-alt" d="M0,26.608A2.735,2.735,0,0,0,2.716,29.36H22.632a2.735,2.735,0,0,0,2.716-2.753V11.01H0ZM18.106,15.368a.686.686,0,0,1,.679-.688h2.263a.686.686,0,0,1,.679.688v2.294a.686.686,0,0,1-.679.688H18.785a.686.686,0,0,1-.679-.688Zm0,7.34a.686.686,0,0,1,.679-.688h2.263a.686.686,0,0,1,.679.688V25a.686.686,0,0,1-.679.688H18.785A.686.686,0,0,1,18.106,25Zm-7.242-7.34a.686.686,0,0,1,.679-.688h2.263a.686.686,0,0,1,.679.688v2.294a.686.686,0,0,1-.679.688H11.542a.686.686,0,0,1-.679-.688Zm0,7.34a.686.686,0,0,1,.679-.688h2.263a.686.686,0,0,1,.679.688V25a.686.686,0,0,1-.679.688H11.542A.686.686,0,0,1,10.863,25Zm-7.242-7.34A.686.686,0,0,1,4.3,14.68H6.563a.686.686,0,0,1,.679.688v2.294a.686.686,0,0,1-.679.688H4.3a.686.686,0,0,1-.679-.688Zm0,7.34A.686.686,0,0,1,4.3,22.02H6.563a.686.686,0,0,1,.679.688V25a.686.686,0,0,1-.679.688H4.3A.686.686,0,0,1,3.621,25ZM22.632,3.67H19.916V.918A.914.914,0,0,0,19.011,0H17.2A.914.914,0,0,0,16.3.918V3.67H9.053V.918A.914.914,0,0,0,8.148,0H6.337a.914.914,0,0,0-.905.918V3.67H2.716A2.735,2.735,0,0,0,0,6.423V9.175H25.348V6.423A2.735,2.735,0,0,0,22.632,3.67Z" transform="translate(660.152 841.82)"/>
      <text id="mm_dd_yyyy" data-name="mm/dd/yyyy" transform="translate(203 860)" font-size="15" font-family="MyriadPro-Regular, Myriad Pro" opacity="0.498"><tspan x="-40" y="0">mm/dd/yyyy</tspan></text>
    </g>
    <g id="Boton_Consultar" transform="translate(306 972)">
      <g id="Rectangle_10" data-name="Rectangle 10" fill="#157ffb" stroke="#707070" stroke-width="1">
        <rect width="209" height="53" rx="18" stroke="none"/>
        <rect x="0.5" y="0.5" width="208" height="52" rx="17.5" fill="none"/>
      </g>
      <text id="Consultar" transform="translate(105 33)" fill="#fff" font-size="20" font-family="MyriadPro-Regular, Myriad Pro"><tspan x="-39" y="0">Consultar</tspan></text>
    </g>
    <g id="Caja_TipoDocumento" transform="translate(0 -11)">
      <g id="Rectangle_4" data-name="Rectangle 4" transform="translate(152 529)" fill="#fff" stroke="#707070" stroke-width="1">
        <rect width="544" height="43" stroke="none"/>
        <rect x="0.5" y="0.5" width="543" height="42" fill="none"/>
      </g>
      <text id="Cédula_de_ciudadanía" data-name="Cédula de ciudadanía" transform="translate(229 554)" font-size="15" font-family="MyriadPro-Regular, Myriad Pro" opacity="0.498"><tspan x="-67" y="0">Cédula de ciudadanía</tspan></text>
    </g>
  </g>
</svg>
